<svg xmlns="http://www.w3.org/2000/svg" width="638pt" height="326pt" viewBox="0 0 638 326"><g fill="#050505"><path d="M0 0h407.82c-.01 47.25 0 94.49-.01 141.74 59.16 0 118.32.02 177.49 0 17.65 31.03 35.09 62.18 52.7 93.24v.34c-17.55 30.24-35.06 60.5-52.7 90.68H105.72c-.1-28.06.19-56.12-.13-84.17.73-.16 1.47-.3 2.21-.43.55 1.83.79 3.81-.36 5.48.42-.64.86-1.26 1.33-1.87.54-2.87.02-5.77-3.03-6.84-.08-19.22.11-38.44-.1-57.65-35.22.16-70.43.03-105.64.02V0m41.8 34.7c.01 35.59.03 71.19-.01 106.79 11.27.03 22.54-.01 33.81.01-.03-13.71.04-27.43-.03-41.14 10.5 0 21 .03 31.51-.01.03 13.72-.02 27.44.02 41.16 11.24-.04 22.48-.02 33.72 0-.07-35.62.09-71.25-.08-106.86-11.21.09-22.42.07-33.62.01-.06 13.18-.05 26.36-.01 39.54-10.51-.03-21.02-.04-31.52 0 .02-13.17.01-26.34-.01-39.52-11.26.03-22.52.01-33.78.02m107.24 106.79c10.45.01 20.91 0 31.37.02 1.7-5.95 3.08-12 4.94-17.9 11.24.17 22.49.03 33.73.07 1.51 5.96 3.34 11.83 4.76 17.81 11.96.02 23.93-.01 35.89.01-11.2-35.59-22.31-71.21-33.47-106.81-14.55.02-29.09.02-43.63 0-11.21 35.6-22.42 71.19-33.59 106.8M267.79 34.7c.02 35.59.02 71.19 0 106.78 9.96.04 19.93 0 29.89.02.02-21.32-.03-42.64.03-63.95 11.84 21.29 23.91 42.46 35.53 63.86 10.83.21 21.67.02 32.5.09-.02-35.61.02-71.22-.02-106.83-9.82.02-19.63.11-29.45-.04-.18 18.95-.02 37.91-.08 56.87-10.05-18.94-20.46-37.69-30.29-56.73-12.7-.17-25.41-.02-38.11-.07m22.9 145.27c-14.09 2.74-27.39 10.78-35.23 22.97-8.94 13.46-10.49 30.72-7.01 46.23 2.71 12.05 9.75 23.28 20.12 30.16 13.28 9.11 30.25 11.11 45.91 8.93 14.05-2.03 27.77-8.99 36.19-20.66 10.17-13.77 12.37-32.13 9.04-48.59-2.78-13.51-11.51-25.66-23.58-32.39-13.68-7.61-30.16-9.53-45.44-6.65m219.9-.07c-14.49 2.69-28.16 11.02-36.04 23.64-8.8 13.72-10.04 31.17-6.32 46.75 3 12.54 10.96 23.87 22.07 30.5 13.11 8 29.18 9.43 44.12 7.4 14.51-2.13 28.49-9.73 36.79-22.03 8.81-12.82 10.82-29.23 8.53-44.34-2.06-13.67-10.05-26.36-21.78-33.76-13.92-8.79-31.34-11.05-47.37-8.16m-359.72.46c.04 32.88 0 65.76.03 98.64.06 2.76-.31 5.56.43 8.26 11.07-.27 22.15-.08 33.22-.1.19-12.23.05-24.46.07-36.69h5.48c6.54 12.27 13.24 24.45 19.85 36.68 11.83.01 23.66-.06 35.49.04-1.34-2.23-2.63-4.49-3.8-6.81.26-.24.76-.73 1.02-.97-.49-.06-1.46-.2-1.94-.26-6.25-12.03-13.21-23.69-19.63-35.63 8.19-3.56 15.18-10.53 17.07-19.47 2.5-11.57.54-25.27-8.63-33.52-8.89-7.89-21.28-9.84-32.75-10.16-15.3-.06-30.61-.04-45.91-.01m217.94.05c.16 19.2-.05 38.4.1 57.6-.2 16.21.15 32.42-.17 48.63 2.34.77 4.84.45 7.27.5 8.84.02 17.69-.07 26.54.05.22-12.24.06-24.48.08-36.71 1.82 0 3.64 0 5.47.01 6.55 12.25 13.26 24.41 19.81 36.65 11.83 0 23.66-.02 35.49.01-8.11-14.54-16.34-29.02-24.29-43.65 5.8-2.7 11.23-6.7 14.34-12.42 4.45-7.94 4.25-17.5 2.7-26.2-1.96-6.27-5.32-12.28-10.79-16.12-10.44-7.55-23.92-8.56-36.38-8.43-13.39.06-26.78-.09-40.17.08Z" opacity="1.00"/><path d="M202.13 61.81c3.75 12.91 6.96 25.97 10.66 38.9-7.07-.04-14.13.04-21.2-.06 3.64-12.91 7.35-25.82 10.54-38.84ZM298.46 205.68c6.68-1.29 14.23-.32 19.4 4.42 6.22 5.76 8.14 14.68 7.96 22.85.27 8.11-1.16 16.9-6.73 23.16-8.01 9.23-24.63 8.43-31.62-1.67-5.85-8.49-5.86-19.47-4.72-29.32 1.09-8.7 6.65-17.55 15.71-19.44ZM517.53 205.8c6.44-1.37 13.78-.7 19.01 3.65 6.41 5.13 8.53 13.75 8.84 21.6.34 8.64-.78 18.1-6.62 24.91-6.34 7.36-18.06 8.51-26.23 3.67-6.2-3.71-9.31-10.88-10.32-17.77-1.05-7.64-.89-15.64 1.66-22.98 2.1-6.2 7.18-11.56 13.66-13.08ZM184.65 205.71c5.94.23 12.36-.93 17.81 2.07 4.38 2.73 4.58 8.8 3.5 13.31-.79 3.67-4.03 6.24-7.57 7.04-4.52.98-9.18.48-13.76.59.06-7.67.02-15.34.02-23.01ZM402.66 205.72c6.41.34 14.1-1.4 19.33 3.28 4.27 5.32 3.45 15.49-3.41 18.35-5.02 2.15-10.63 1.14-15.93 1.37.03-7.67 0-15.33.01-23Z" opacity="1.00"/></g><g fill="#fff"><path d="M41.8 34.7c11.26-.01 22.52.01 33.78-.02.02 13.18.03 26.35.01 39.52 10.5-.04 21.01-.03 31.52 0-.04-13.18-.05-26.36.01-39.54 11.2.06 22.41.08 33.62-.01.17 35.61.01 71.24.08 106.86-11.24-.02-22.48-.04-33.72 0-.04-13.72.01-27.44-.02-41.16-10.51.04-21.01.01-31.51.01.07 13.71 0 27.43.03 41.14-11.27-.02-22.54.02-33.81-.01.04-35.6.02-71.2.01-106.79ZM149.04 141.49c11.17-35.61 22.38-71.2 33.59-106.8 14.54.02 29.08.02 43.63 0 11.16 35.6 22.27 71.22 33.47 106.81-11.96-.02-23.93.01-35.89-.01-1.42-5.98-3.25-11.85-4.76-17.81-11.24-.04-22.49.1-33.73-.07-1.86 5.9-3.24 11.95-4.94 17.9-10.46-.02-20.92-.01-31.37-.02m53.09-79.68c-3.19 13.02-6.9 25.93-10.54 38.84 7.07.1 14.13.02 21.2.06-3.7-12.93-6.91-25.99-10.66-38.9ZM267.79 34.7c12.7.05 25.41-.1 38.11.07 9.83 19.04 20.24 37.79 30.29 56.73.06-18.96-.1-37.92.08-56.87 9.82.15 19.63.06 29.45.04.04 35.61 0 71.22.02 106.83-10.83-.07-21.67.12-32.5-.09-11.62-21.4-23.69-42.57-35.53-63.86-.06 21.31-.01 42.63-.03 63.95-9.96-.02-19.93.02-29.89-.02.02-35.59.02-71.19 0-106.78ZM290.69 179.97c15.28-2.88 31.76-.96 45.44 6.65 12.07 6.73 20.8 18.88 23.58 32.39 3.33 16.46 1.13 34.82-9.04 48.59-8.42 11.67-22.14 18.63-36.19 20.66-15.66 2.18-32.63.18-45.91-8.93-10.37-6.88-17.41-18.11-20.12-30.16-3.48-15.51-1.93-32.77 7.01-46.23 7.84-12.19 21.14-20.23 35.23-22.97m7.77 25.71c-9.06 1.89-14.62 10.74-15.71 19.44-1.14 9.85-1.13 20.83 4.72 29.32 6.99 10.1 23.61 10.9 31.62 1.67 5.57-6.26 7-15.05 6.73-23.16.18-8.17-1.74-17.09-7.96-22.85-5.17-4.74-12.72-5.71-19.4-4.42ZM510.59 179.9c16.03-2.89 33.45-.63 47.37 8.16 11.73 7.4 19.72 20.09 21.78 33.76 2.29 15.11.28 31.52-8.53 44.34-8.3 12.3-22.28 19.9-36.79 22.03-14.94 2.03-31.01.6-44.12-7.4-11.11-6.63-19.07-17.96-22.07-30.5-3.72-15.58-2.48-33.03 6.32-46.75 7.88-12.62 21.55-20.95 36.04-23.64m6.94 25.9c-6.48 1.52-11.56 6.88-13.66 13.08-2.55 7.34-2.71 15.34-1.66 22.98 1.01 6.89 4.12 14.06 10.32 17.77 8.17 4.84 19.89 3.69 26.23-3.67 5.84-6.81 6.96-16.27 6.62-24.91-.31-7.85-2.43-16.47-8.84-21.6-5.23-4.35-12.57-5.02-19.01-3.65ZM150.87 180.36c15.3-.03 30.61-.05 45.91.01 11.47.32 23.86 2.27 32.75 10.16 9.17 8.25 11.13 21.95 8.63 33.52-1.89 8.94-8.88 15.91-17.07 19.47 6.42 11.94 13.38 23.6 19.63 35.63.48.06 1.45.2 1.94.26-.26.24-.76.73-1.02.97 1.17 2.32 2.46 4.58 3.8 6.81-11.83-.1-23.66-.03-35.49-.04-6.61-12.23-13.31-24.41-19.85-36.68h-5.48c-.02 12.23.12 24.46-.07 36.69-11.07.02-22.15-.17-33.22.1-.74-2.7-.37-5.5-.43-8.26-.03-32.88.01-65.76-.03-98.64m33.78 25.35c0 7.67.04 15.34-.02 23.01 4.58-.11 9.24.39 13.76-.59 3.54-.8 6.78-3.37 7.57-7.04 1.08-4.51.88-10.58-3.5-13.31-5.45-3-11.87-1.84-17.81-2.07ZM368.81 180.41c13.39-.17 26.78-.02 40.17-.08 12.46-.13 25.94.88 36.38 8.43 5.47 3.84 8.83 9.85 10.79 16.12 1.55 8.7 1.75 18.26-2.7 26.2-3.11 5.72-8.54 9.72-14.34 12.42 7.95 14.63 16.18 29.11 24.29 43.65-11.83-.03-23.66-.01-35.49-.01-6.55-12.24-13.26-24.4-19.81-36.65-1.83-.01-3.65-.01-5.47-.01-.02 12.23.14 24.47-.08 36.71-8.85-.12-17.7-.03-26.54-.05-2.43-.05-4.93.27-7.27-.5.32-16.21-.03-32.42.17-48.63-.15-19.2.06-38.4-.1-57.6m33.85 25.31c-.01 7.67.02 15.33-.01 23 5.3-.23 10.91.78 15.93-1.37 6.86-2.86 7.68-13.03 3.41-18.35-5.23-4.68-12.92-2.94-19.33-3.28Z" opacity="1.00"/></g></svg>